<?xml version="1.0" standalone="no"?>
<!DOCTYPE svg PUBLIC "-//W3C//DTD SVG 20010904//EN"
 "http://www.w3.org/TR/2001/REC-SVG-20010904/DTD/svg10.dtd">
<svg version="1.0" xmlns="http://www.w3.org/2000/svg"
 width="700.000000pt" height="700.000000pt" viewBox="0 0 700.000000 700.000000"
 preserveAspectRatio="xMidYMid meet">
<metadata>
Created by potrace 1.14, written by Peter Selinger 2001-2017
</metadata>
<g transform="translate(0.000000,700.000000) scale(0.100000,-0.100000)"
fill="#000000" stroke="none">
<path d="M3278 6996 c-1 -2 -42 -6 -89 -10 -47 -4 -95 -8 -105 -10 -10 -2 -48
-7 -84 -12 -36 -4 -67 -8 -70 -9 -3 -1 -25 -5 -50 -9 -25 -4 -101 -21 -170
-38 -69 -16 -134 -31 -146 -34 -94 -18 -419 -142 -579 -220 -180 -87 -448
-247 -555 -331 -8 -6 -51 -40 -95 -74 -340 -264 -650 -624 -875 -1014 -47 -83
-170 -327 -170 -340 0 -3 -9 -24 -20 -48 -57 -123 -157 -435 -186 -582 -2 -11
-10 -54 -19 -95 -29 -147 -36 -199 -52 -370 -15 -159 -7 -607 12 -708 1 -9 6
-42 9 -72 4 -30 9 -68 12 -85 104 -604 337 -1133 711 -1610 240 -306 585 -608
948 -830 213 -130 620 -310 721 -319 55 -5 116 12 146 41 50 48 54 79 53 440
0 182 -3 334 -5 337 -3 3 -23 1 -45 -4 -216 -48 -467 -44 -650 11 -113 34
-237 104 -313 178 -81 80 -129 150 -173 256 -87 211 -218 386 -354 473 -108
70 -167 135 -158 174 7 29 70 50 147 50 39 0 78 -2 86 -5 8 -2 29 -8 45 -12
45 -12 135 -57 190 -95 77 -53 155 -139 238 -262 84 -126 153 -200 236 -255
60 -40 174 -87 236 -98 75 -13 194 -12 277 2 71 12 242 64 255 77 2 2 6 17 8
33 15 122 85 282 164 380 28 35 48 62 43 61 -6 -2 -53 3 -158 18 -85 11 -225
42 -339 75 -369 107 -652 305 -833 584 -78 119 -172 356 -202 505 -5 30 -12
66 -15 80 -5 23 -8 46 -21 145 -14 113 -20 394 -9 485 16 134 61 298 115 416
28 63 130 231 165 272 11 13 32 38 47 55 18 21 24 36 18 47 -14 27 -50 183
-56 245 -11 110 -6 263 12 362 20 115 75 291 95 304 18 11 158 1 236 -16 182
-40 415 -150 674 -315 l46 -30 99 24 c54 14 115 27 134 31 19 3 46 8 60 10 57
12 72 14 137 20 37 4 71 9 74 11 13 8 218 18 369 18 149 0 287 -7 378 -19 18
-2 52 -7 75 -10 23 -3 60 -8 82 -11 22 -3 47 -7 55 -9 8 -2 29 -7 45 -9 17 -3
79 -17 139 -30 l109 -25 56 38 c193 131 511 281 648 306 15 2 48 8 73 13 49 9
166 9 175 0 17 -16 77 -228 90 -313 14 -96 16 -125 17 -215 0 -125 -25 -287
-57 -364 -12 -28 -10 -33 40 -95 146 -182 242 -386 280 -596 24 -136 25 -146
25 -300 -1 -192 -8 -290 -35 -440 -90 -511 -346 -865 -769 -1065 -87 -41 -250
-103 -304 -115 -9 -2 -69 -16 -132 -31 -63 -14 -126 -28 -140 -29 -14 -2 -66
-9 -117 -16 l-91 -12 49 -61 c87 -107 135 -217 165 -375 14 -73 17 -172 19
-656 1 -619 0 -599 57 -653 57 -52 134 -50 288 8 191 71 465 202 552 262 14
10 31 18 37 18 6 0 11 5 11 10 0 6 4 10 9 10 16 0 212 134 323 220 156 122
330 285 458 429 36 41 70 79 75 85 6 6 40 49 76 96 337 436 561 925 668 1455
26 128 28 139 47 290 3 27 8 61 10 75 9 49 11 526 4 605 -15 160 -21 210 -25
225 -2 8 -7 35 -10 60 -17 129 -80 384 -136 552 -348 1037 -1166 1855 -2204
2206 -167 56 -419 119 -555 137 -19 3 -46 7 -60 10 -13 2 -52 7 -86 11 -33 3
-74 8 -90 10 -33 5 -540 14 -546 10z"/>
</g>
</svg>
